<mxfile host="app.diagrams.net" modified="2024-03-25T21:36:03.739Z" agent="Mozilla/5.0 (Macintosh; Intel Mac OS X 10_15_7) AppleWebKit/537.36 (KHTML, like Gecko) Chrome/123.0.0.0 Safari/537.36" etag="JhneU9pj7SSa_j4r8NOH" version="24.0.4" type="device">
  <diagram name="Page-1" id="WreZiHgmlUJshKzMANvh">
    <mxGraphModel dx="2474" dy="1220" grid="0" gridSize="10" guides="1" tooltips="1" connect="1" arrows="1" fold="1" page="0" pageScale="1" pageWidth="850" pageHeight="1100" math="0" shadow="0">
      <root>
        <mxCell id="0" />
        <mxCell id="1" parent="0" />
        <mxCell id="0UZuifaKqZGqeyhI5H-K-1" value="" style="swimlane;startSize=0;" vertex="1" parent="1">
          <mxGeometry x="-608" y="-193" width="313" height="490" as="geometry">
            <mxRectangle x="-78" y="-77" width="50" height="44" as="alternateBounds" />
          </mxGeometry>
        </mxCell>
        <mxCell id="0UZuifaKqZGqeyhI5H-K-2" value="" style="rounded=0;whiteSpace=wrap;html=1;" vertex="1" parent="0UZuifaKqZGqeyhI5H-K-1">
          <mxGeometry x="96.5" y="57" width="120" height="24" as="geometry" />
        </mxCell>
        <mxCell id="0UZuifaKqZGqeyhI5H-K-3" value="" style="rounded=0;whiteSpace=wrap;html=1;" vertex="1" parent="0UZuifaKqZGqeyhI5H-K-1">
          <mxGeometry x="15" y="106" width="78" height="364" as="geometry" />
        </mxCell>
        <mxCell id="0UZuifaKqZGqeyhI5H-K-4" value="" style="rounded=0;whiteSpace=wrap;html=1;" vertex="1" parent="0UZuifaKqZGqeyhI5H-K-1">
          <mxGeometry x="109" y="106" width="78" height="281" as="geometry" />
        </mxCell>
        <mxCell id="0UZuifaKqZGqeyhI5H-K-5" value="" style="rounded=0;whiteSpace=wrap;html=1;" vertex="1" parent="0UZuifaKqZGqeyhI5H-K-1">
          <mxGeometry x="200" y="106" width="78" height="314" as="geometry" />
        </mxCell>
        <mxCell id="0UZuifaKqZGqeyhI5H-K-6" value="" style="rounded=0;whiteSpace=wrap;html=1;" vertex="1" parent="1">
          <mxGeometry x="-317" y="-87" width="78" height="159" as="geometry" />
        </mxCell>
        <mxCell id="0UZuifaKqZGqeyhI5H-K-7" value="" style="swimlane;startSize=0;" vertex="1" parent="1">
          <mxGeometry x="-133" y="-152" width="313" height="512" as="geometry">
            <mxRectangle x="-78" y="-77" width="50" height="44" as="alternateBounds" />
          </mxGeometry>
        </mxCell>
        <mxCell id="0UZuifaKqZGqeyhI5H-K-8" value="" style="rounded=0;whiteSpace=wrap;html=1;" vertex="1" parent="0UZuifaKqZGqeyhI5H-K-7">
          <mxGeometry x="96.5" y="57" width="120" height="24" as="geometry" />
        </mxCell>
        <mxCell id="0UZuifaKqZGqeyhI5H-K-9" value="&lt;span style=&quot;color: rgba(0, 0, 0, 0); font-family: monospace; font-size: 0px; text-align: start; text-wrap: nowrap;&quot;&gt;%3CmxGraphModel%3E%3Croot%3E%3CmxCell%20id%3D%220%22%2F%3E%3CmxCell%20id%3D%221%22%20parent%3D%220%22%2F%3E%3CmxCell%20id%3D%222%22%20value%3D%22%22%20style%3D%22rounded%3D0%3BwhiteSpace%3Dwrap%3Bhtml%3D1%3B%22%20vertex%3D%221%22%20parent%3D%221%22%3E%3CmxGeometry%20x%3D%22-118%22%20y%3D%22-46%22%20width%3D%22110%22%20height%3D%22194%22%20as%3D%22geometry%22%2F%3E%3C%2FmxCell%3E%3C%2Froot%3E%3C%2FmxGraphModel%3E&lt;/span&gt;" style="rounded=0;whiteSpace=wrap;html=1;" vertex="1" parent="0UZuifaKqZGqeyhI5H-K-7">
          <mxGeometry x="21" y="106" width="110" height="179" as="geometry" />
        </mxCell>
        <mxCell id="0UZuifaKqZGqeyhI5H-K-13" value="" style="rounded=0;whiteSpace=wrap;html=1;" vertex="1" parent="0UZuifaKqZGqeyhI5H-K-7">
          <mxGeometry x="188" y="106" width="110" height="178" as="geometry" />
        </mxCell>
        <mxCell id="0UZuifaKqZGqeyhI5H-K-14" value="" style="rounded=0;whiteSpace=wrap;html=1;" vertex="1" parent="0UZuifaKqZGqeyhI5H-K-7">
          <mxGeometry x="21" y="300" width="110" height="194" as="geometry" />
        </mxCell>
        <mxCell id="0UZuifaKqZGqeyhI5H-K-15" value="" style="rounded=0;whiteSpace=wrap;html=1;" vertex="1" parent="0UZuifaKqZGqeyhI5H-K-7">
          <mxGeometry x="186" y="304" width="110" height="190" as="geometry" />
        </mxCell>
        <mxCell id="0UZuifaKqZGqeyhI5H-K-16" value="" style="swimlane;startSize=0;" vertex="1" parent="1">
          <mxGeometry x="278" y="-157" width="313" height="512" as="geometry">
            <mxRectangle x="-78" y="-77" width="50" height="44" as="alternateBounds" />
          </mxGeometry>
        </mxCell>
        <mxCell id="0UZuifaKqZGqeyhI5H-K-17" value="" style="rounded=0;whiteSpace=wrap;html=1;" vertex="1" parent="0UZuifaKqZGqeyhI5H-K-16">
          <mxGeometry x="96.5" y="57" width="120" height="24" as="geometry" />
        </mxCell>
        <mxCell id="0UZuifaKqZGqeyhI5H-K-18" value="&lt;span style=&quot;color: rgba(0, 0, 0, 0); font-family: monospace; font-size: 0px; text-align: start; text-wrap: nowrap;&quot;&gt;%3CmxGraphModel%3E%3Croot%3E%3CmxCell%20id%3D%220%22%2F%3E%3CmxCell%20id%3D%221%22%20parent%3D%220%22%2F%3E%3CmxCell%20id%3D%222%22%20value%3D%22%22%20style%3D%22rounded%3D0%3BwhiteSpace%3Dwrap%3Bhtml%3D1%3B%22%20vertex%3D%221%22%20parent%3D%221%22%3E%3CmxGeometry%20x%3D%22-118%22%20y%3D%22-46%22%20width%3D%22110%22%20height%3D%22194%22%20as%3D%22geometry%22%2F%3E%3C%2FmxCell%3E%3C%2Froot%3E%3C%2FmxGraphModel%3E&lt;/span&gt;" style="rounded=0;whiteSpace=wrap;html=1;" vertex="1" parent="0UZuifaKqZGqeyhI5H-K-16">
          <mxGeometry x="21" y="106" width="106" height="22" as="geometry" />
        </mxCell>
        <mxCell id="0UZuifaKqZGqeyhI5H-K-22" value="&lt;span style=&quot;color: rgba(0, 0, 0, 0); font-family: monospace; font-size: 0px; text-align: start; text-wrap: nowrap;&quot;&gt;%3CmxGraphModel%3E%3Croot%3E%3CmxCell%20id%3D%220%22%2F%3E%3CmxCell%20id%3D%221%22%20parent%3D%220%22%2F%3E%3CmxCell%20id%3D%222%22%20value%3D%22%22%20style%3D%22rounded%3D0%3BwhiteSpace%3Dwrap%3Bhtml%3D1%3B%22%20vertex%3D%221%22%20parent%3D%221%22%3E%3CmxGeometry%20x%3D%22-118%22%20y%3D%22-46%22%20width%3D%22110%22%20height%3D%22194%22%20as%3D%22geometry%22%2F%3E%3C%2FmxCell%3E%3C%2Froot%3E%3C%2FmxGraphModel%3E&lt;/span&gt;" style="rounded=0;whiteSpace=wrap;html=1;" vertex="1" parent="0UZuifaKqZGqeyhI5H-K-16">
          <mxGeometry x="174" y="106" width="106" height="22" as="geometry" />
        </mxCell>
        <mxCell id="0UZuifaKqZGqeyhI5H-K-23" value="&lt;span style=&quot;color: rgba(0, 0, 0, 0); font-family: monospace; font-size: 0px; text-align: start; text-wrap: nowrap;&quot;&gt;%3CmxGraphModel%3E%3Croot%3E%3CmxCell%20id%3D%220%22%2F%3E%3CmxCell%20id%3D%221%22%20parent%3D%220%22%2F%3E%3CmxCell%20id%3D%222%22%20value%3D%22%22%20style%3D%22rounded%3D0%3BwhiteSpace%3Dwrap%3Bhtml%3D1%3B%22%20vertex%3D%221%22%20parent%3D%221%22%3E%3CmxGeometry%20x%3D%22-118%22%20y%3D%22-46%22%20width%3D%22110%22%20height%3D%22194%22%20as%3D%22geometry%22%2F%3E%3C%2FmxCell%3E%3C%2Froot%3E%3C%2FmxGraphModel%3E&lt;/span&gt;" style="rounded=0;whiteSpace=wrap;html=1;" vertex="1" parent="0UZuifaKqZGqeyhI5H-K-16">
          <mxGeometry x="21" y="144" width="106" height="22" as="geometry" />
        </mxCell>
        <mxCell id="0UZuifaKqZGqeyhI5H-K-24" value="&lt;span style=&quot;color: rgba(0, 0, 0, 0); font-family: monospace; font-size: 0px; text-align: start; text-wrap: nowrap;&quot;&gt;%3CmxGraphModel%3E%3Croot%3E%3CmxCell%20id%3D%220%22%2F%3E%3CmxCell%20id%3D%221%22%20parent%3D%220%22%2F%3E%3CmxCell%20id%3D%222%22%20value%3D%22%22%20style%3D%22rounded%3D0%3BwhiteSpace%3Dwrap%3Bhtml%3D1%3B%22%20vertex%3D%221%22%20parent%3D%221%22%3E%3CmxGeometry%20x%3D%22-118%22%20y%3D%22-46%22%20width%3D%22110%22%20height%3D%22194%22%20as%3D%22geometry%22%2F%3E%3C%2FmxCell%3E%3C%2Froot%3E%3C%2FmxGraphModel%3E&lt;/span&gt;" style="rounded=0;whiteSpace=wrap;html=1;" vertex="1" parent="0UZuifaKqZGqeyhI5H-K-16">
          <mxGeometry x="174" y="144" width="106" height="22" as="geometry" />
        </mxCell>
        <mxCell id="0UZuifaKqZGqeyhI5H-K-26" value="" style="rounded=0;whiteSpace=wrap;html=1;" vertex="1" parent="1">
          <mxGeometry x="607" y="-157" width="194" height="315" as="geometry" />
        </mxCell>
        <mxCell id="0UZuifaKqZGqeyhI5H-K-27" value="&lt;span style=&quot;color: rgba(0, 0, 0, 0); font-family: monospace; font-size: 0px; text-align: start; text-wrap: nowrap;&quot;&gt;%3CmxGraphModel%3E%3Croot%3E%3CmxCell%20id%3D%220%22%2F%3E%3CmxCell%20id%3D%221%22%20parent%3D%220%22%2F%3E%3CmxCell%20id%3D%222%22%20value%3D%22%22%20style%3D%22rounded%3D0%3BwhiteSpace%3Dwrap%3Bhtml%3D1%3B%22%20vertex%3D%221%22%20parent%3D%221%22%3E%3CmxGeometry%20x%3D%22-118%22%20y%3D%22-46%22%20width%3D%22110%22%20height%3D%22194%22%20as%3D%22geometry%22%2F%3E%3C%2FmxCell%3E%3C%2Froot%3E%3C%2FmxGraphModel%3E&lt;/span&gt;" style="rounded=0;whiteSpace=wrap;html=1;" vertex="1" parent="1">
          <mxGeometry x="651" y="-134" width="104" height="264" as="geometry" />
        </mxCell>
        <mxCell id="0UZuifaKqZGqeyhI5H-K-29" value="" style="rounded=0;whiteSpace=wrap;html=1;" vertex="1" parent="1">
          <mxGeometry x="-671" y="376" width="1588" height="794" as="geometry" />
        </mxCell>
        <mxCell id="0UZuifaKqZGqeyhI5H-K-30" value="Text form for items" style="rounded=0;whiteSpace=wrap;html=1;" vertex="1" parent="1">
          <mxGeometry x="-353" y="536" width="800" height="49" as="geometry" />
        </mxCell>
        <mxCell id="0UZuifaKqZGqeyhI5H-K-31" value="submit" style="rounded=1;whiteSpace=wrap;html=1;" vertex="1" parent="1">
          <mxGeometry x="479" y="530.5" width="120" height="60" as="geometry" />
        </mxCell>
        <mxCell id="0UZuifaKqZGqeyhI5H-K-51" style="edgeStyle=orthogonalEdgeStyle;rounded=0;orthogonalLoop=1;jettySize=auto;html=1;exitX=0.5;exitY=1;exitDx=0;exitDy=0;" edge="1" parent="1" source="0UZuifaKqZGqeyhI5H-K-32" target="0UZuifaKqZGqeyhI5H-K-36">
          <mxGeometry relative="1" as="geometry" />
        </mxCell>
        <mxCell id="0UZuifaKqZGqeyhI5H-K-32" value="To Watch List" style="rounded=0;whiteSpace=wrap;html=1;" vertex="1" parent="1">
          <mxGeometry x="-348" y="669" width="217" height="32" as="geometry" />
        </mxCell>
        <mxCell id="0UZuifaKqZGqeyhI5H-K-33" value="To Buy" style="rounded=0;whiteSpace=wrap;html=1;" vertex="1" parent="1">
          <mxGeometry x="377.5" y="669" width="217" height="32" as="geometry" />
        </mxCell>
        <mxCell id="0UZuifaKqZGqeyhI5H-K-34" value="To Read" style="rounded=0;whiteSpace=wrap;html=1;" vertex="1" parent="1">
          <mxGeometry x="140" y="669" width="217" height="32" as="geometry" />
        </mxCell>
        <mxCell id="0UZuifaKqZGqeyhI5H-K-35" value="To Eat" style="rounded=0;whiteSpace=wrap;html=1;" vertex="1" parent="1">
          <mxGeometry x="-107" y="669" width="217" height="32" as="geometry" />
        </mxCell>
        <mxCell id="0UZuifaKqZGqeyhI5H-K-36" value="" style="rounded=0;whiteSpace=wrap;html=1;" vertex="1" parent="1">
          <mxGeometry x="-348" y="769" width="942.5" height="386" as="geometry" />
        </mxCell>
        <mxCell id="0UZuifaKqZGqeyhI5H-K-39" value="" style="rounded=1;whiteSpace=wrap;html=1;" vertex="1" parent="1">
          <mxGeometry x="-165" y="826" width="29" height="26" as="geometry" />
        </mxCell>
        <mxCell id="0UZuifaKqZGqeyhI5H-K-40" value="Harry Potter" style="rounded=0;whiteSpace=wrap;html=1;" vertex="1" parent="1">
          <mxGeometry x="-123" y="825" width="437" height="28" as="geometry" />
        </mxCell>
        <mxCell id="0UZuifaKqZGqeyhI5H-K-41" value="" style="rounded=0;whiteSpace=wrap;html=1;" vertex="1" parent="1">
          <mxGeometry x="-125" y="876" width="437" height="28" as="geometry" />
        </mxCell>
        <mxCell id="0UZuifaKqZGqeyhI5H-K-42" value="" style="rounded=0;whiteSpace=wrap;html=1;" vertex="1" parent="1">
          <mxGeometry x="-123" y="926" width="437" height="28" as="geometry" />
        </mxCell>
        <mxCell id="0UZuifaKqZGqeyhI5H-K-43" value="" style="rounded=0;whiteSpace=wrap;html=1;" vertex="1" parent="1">
          <mxGeometry x="-123" y="986" width="437" height="28" as="geometry" />
        </mxCell>
        <mxCell id="0UZuifaKqZGqeyhI5H-K-44" value="" style="rounded=1;whiteSpace=wrap;html=1;" vertex="1" parent="1">
          <mxGeometry x="-167" y="877" width="29" height="26" as="geometry" />
        </mxCell>
        <mxCell id="0UZuifaKqZGqeyhI5H-K-45" value="" style="rounded=1;whiteSpace=wrap;html=1;" vertex="1" parent="1">
          <mxGeometry x="-165" y="928" width="29" height="26" as="geometry" />
        </mxCell>
        <mxCell id="0UZuifaKqZGqeyhI5H-K-46" value="" style="rounded=1;whiteSpace=wrap;html=1;" vertex="1" parent="1">
          <mxGeometry x="-167" y="986" width="29" height="26" as="geometry" />
        </mxCell>
        <mxCell id="0UZuifaKqZGqeyhI5H-K-49" value="Header" style="rounded=0;whiteSpace=wrap;html=1;" vertex="1" parent="1">
          <mxGeometry x="-670.75" y="390" width="1587.75" height="74" as="geometry" />
        </mxCell>
        <mxCell id="0UZuifaKqZGqeyhI5H-K-50" value="Logged in user information" style="rounded=0;whiteSpace=wrap;html=1;" vertex="1" parent="1">
          <mxGeometry x="677" y="397" width="235" height="60" as="geometry" />
        </mxCell>
        <mxCell id="0UZuifaKqZGqeyhI5H-K-52" value="Click/mouseover to bring up list" style="text;html=1;align=center;verticalAlign=middle;whiteSpace=wrap;rounded=0;" vertex="1" parent="1">
          <mxGeometry x="-237" y="710" width="186" height="30" as="geometry" />
        </mxCell>
        <mxCell id="0UZuifaKqZGqeyhI5H-K-53" value="Logo! :)" style="text;html=1;align=center;verticalAlign=middle;whiteSpace=wrap;rounded=0;" vertex="1" parent="1">
          <mxGeometry x="-635" y="412" width="60" height="30" as="geometry" />
        </mxCell>
        <mxCell id="0UZuifaKqZGqeyhI5H-K-54" value="drop down for changing lists/deletion? or click and drag functionality?" style="text;html=1;align=center;verticalAlign=middle;whiteSpace=wrap;rounded=0;" vertex="1" parent="1">
          <mxGeometry x="321" y="825" width="210" height="30" as="geometry" />
        </mxCell>
        <mxCell id="0UZuifaKqZGqeyhI5H-K-55" value="^" style="rounded=0;whiteSpace=wrap;html=1;" vertex="1" parent="1">
          <mxGeometry x="287" y="827" width="27" height="26" as="geometry" />
        </mxCell>
        <mxCell id="0UZuifaKqZGqeyhI5H-K-56" value="(stretch) check when completed, item moves to bottom of list and greys out" style="text;html=1;align=center;verticalAlign=middle;whiteSpace=wrap;rounded=0;" vertex="1" parent="1">
          <mxGeometry x="-299" y="827" width="84" height="30" as="geometry" />
        </mxCell>
        <mxCell id="0UZuifaKqZGqeyhI5H-K-58" value="" style="endArrow=classic;html=1;rounded=0;exitX=1;exitY=0.25;exitDx=0;exitDy=0;entryX=0;entryY=0.5;entryDx=0;entryDy=0;" edge="1" parent="1" source="0UZuifaKqZGqeyhI5H-K-56" target="0UZuifaKqZGqeyhI5H-K-39">
          <mxGeometry width="50" height="50" relative="1" as="geometry">
            <mxPoint x="107" y="802" as="sourcePoint" />
            <mxPoint x="157" y="752" as="targetPoint" />
          </mxGeometry>
        </mxCell>
        <mxCell id="0UZuifaKqZGqeyhI5H-K-59" value="(stretch) click and drag to reorder?" style="text;html=1;align=center;verticalAlign=middle;whiteSpace=wrap;rounded=0;" vertex="1" parent="1">
          <mxGeometry x="351" y="904" width="60" height="30" as="geometry" />
        </mxCell>
        <mxCell id="0UZuifaKqZGqeyhI5H-K-63" value="x items - n % complete" style="rounded=0;whiteSpace=wrap;html=1;" vertex="1" parent="1">
          <mxGeometry x="-8" y="775" width="207" height="44" as="geometry" />
        </mxCell>
      </root>
    </mxGraphModel>
  </diagram>
</mxfile>
